<svg xmlns="http://www.w3.org/2000/svg" xmlns:xlink="http://www.w3.org/1999/xlink" viewBox="0 0 1000 1000.5"><defs><style>.cls-1{isolation:isolate;}.cls-2{fill:#e6f7ff;}.cls-3{opacity:0.59;fill:url(#Degradado_sin_nombre_76);}.cls-3,.cls-4{mix-blend-mode:multiply;}.cls-4{opacity:0.17;fill:url(#Degradado_sin_nombre_6);}.cls-5{fill:#fff;}</style><radialGradient id="Degradado_sin_nombre_76" cx="500" cy="500" r="1692.97" gradientTransform="matrix(0, -0.52, 0.67, 0, 165.82, 760.42)" gradientUnits="userSpaceOnUse"><stop offset="0" stop-color="#b0e3ff"/><stop offset="0.12" stop-color="#aadefc"/><stop offset="0.28" stop-color="#9acef3"/><stop offset="0.45" stop-color="#7fb5e4"/><stop offset="0.65" stop-color="#5992d0"/><stop offset="0.85" stop-color="#2966b6"/><stop offset="1" stop-color="#0040a0"/></radialGradient><radialGradient id="Degradado_sin_nombre_6" cx="355.37" cy="116.69" r="912.14" gradientUnits="userSpaceOnUse"><stop offset="0.04"/><stop offset="0.95" stop-opacity="0"/></radialGradient></defs><title>blanco</title><g class="cls-1"><g id="Capa_2" data-name="Capa 2"><g id="Capa_1-2" data-name="Capa 1"><rect class="cls-2" width="1000" height="1000"/><rect class="cls-3" width="1000" height="1000"/><polygon class="cls-4" points="174.22 435.18 295.14 583.74 289.04 606.81 259 580.63 250.06 602.97 229.2 586.38 213.12 617.24 176.5 579.74 174.22 587.69 191.94 664.39 219.97 697.71 209.74 701.91 206.41 732.09 356.58 1000.5 999.58 1000.5 999.58 576.5 833.84 388.39 602.31 291.61 540.9 425 407.8 281.51 197.68 380.85 174.22 435.18"/><path class="cls-5" d="M531,517.88,647,352.87l120.87,51.37L629.71,534,825.78,433a32.51,32.51,0,0,0,.43-57.56L637.66,274.63a40.87,40.87,0,0,0-55.93,18L500,458.47,418.27,292.61a40.88,40.88,0,0,0-55.93-18L173.79,375.4a32.5,32.5,0,0,0-17.18,28.67h0A32.5,32.5,0,0,0,174.22,433L370.29,534,232.09,404.24,353,352.87l116.09,165A37.84,37.84,0,0,0,500,534h0A37.87,37.87,0,0,0,531,517.88Z"/><path class="cls-5" d="M230.31,587a7.71,7.71,0,1,0-14.71-4.65L197.68,640.9l-17.92-58.53A7.72,7.72,0,1,0,165,587l23.68,72.62a9.43,9.43,0,0,0,17.92,0Z"/><path class="cls-5" d="M253,576.91a7.56,7.56,0,0,0-7.55,7.55v74.13a7.55,7.55,0,0,0,15.1,0V584.46A7.56,7.56,0,0,0,253,576.91Z"/><path class="cls-5" d="M336.12,654.25a32.79,32.79,0,0,0,3.09-5.21,7.36,7.36,0,0,0-.45-7.11,7.5,7.5,0,0,0-13.17.85,16.62,16.62,0,0,1-2.3,3.64,16,16,0,0,1-12.41,5.81,15.46,15.46,0,0,1-8.44-2.29,15.25,15.25,0,0,1-5.62-6.52,23.27,23.27,0,0,1-2.05-10V609.72a23.14,23.14,0,0,1,2.05-10.05,15.47,15.47,0,0,1,20.77-7.28,17.1,17.1,0,0,1,5.69,4.51,17.82,17.82,0,0,1,2.26,3.47,7.55,7.55,0,0,0,13.2.73,7.39,7.39,0,0,0,.45-7.14,33.75,33.75,0,0,0-3-5.16,30.42,30.42,0,0,0-10.94-9.44A31.2,31.2,0,0,0,310.88,576a32,32,0,0,0-16.5,4.21,28.72,28.72,0,0,0-11.1,11.91,38.19,38.19,0,0,0-3.91,17.58v23.67A38.19,38.19,0,0,0,283.28,651a28.46,28.46,0,0,0,11.1,11.88l.13.08a30,30,0,0,0,15.14,4.1h1.23a31.12,31.12,0,0,0,14.26-3.33A30.66,30.66,0,0,0,336.12,654.25Z"/><path class="cls-5" d="M408.41,591.42a7.25,7.25,0,0,0,5.76-11.85,7.22,7.22,0,0,0-5.61-2.66h-40a11.18,11.18,0,0,0-11.17,11.17V655a11.18,11.18,0,0,0,11.17,11.17h40a7.26,7.26,0,0,0,7.1-8.75,7.34,7.34,0,0,0-7.25-5.75H372.52V629.08h29.36a7.25,7.25,0,0,0,5.77-11.85,7.23,7.23,0,0,0-5.62-2.66H372.52V591.42Z"/><path class="cls-5" d="M491.52,576.91A7.5,7.5,0,0,0,484,584.4v53.24L448.14,580.9a8.57,8.57,0,0,0-15.82,4.59v73.1a7.49,7.49,0,0,0,15,0V606.28L483,662.09a8.67,8.67,0,0,0,16-4.68v-73A7.5,7.5,0,0,0,491.52,576.91Z"/><path class="cls-5" d="M576.4,584.16a7.26,7.26,0,0,0-7.25-7.25H519.81a7.26,7.26,0,1,0,0,14.51h17.12v67.47a7.26,7.26,0,0,0,7.25,7.25h.59a7.26,7.26,0,0,0,7.26-7.25V591.42h17.12A7.26,7.26,0,0,0,576.4,584.16Z"/><path class="cls-5" d="M667.36,580.68h0c-5.09-2.5-11.28-3.77-18.39-3.77H630.89a10.77,10.77,0,0,0-10.76,10.76v67.71a10.77,10.77,0,0,0,10.76,10.76h18c7.12,0,13.31-1.27,18.42-3.77a26.7,26.7,0,0,0,11.89-11.17,35.62,35.62,0,0,0,4-17.46V609.31a35.61,35.61,0,0,0-4-17.45A26.81,26.81,0,0,0,667.36,580.68Zm.51,28.16v25.38c0,5.63-1.57,9.84-4.78,12.87s-7.83,4.55-13.77,4.55h-14.1V591.42h14.1c5.94,0,10.57,1.53,13.77,4.54S667.87,603.21,667.87,608.84Z"/><path class="cls-5" d="M752.1,591.42a7.26,7.26,0,0,0,0-14.51h-40A11.18,11.18,0,0,0,701,588.08V655a11.18,11.18,0,0,0,11.17,11.17h40a7.25,7.25,0,0,0,0-14.5H716.05V629.08h29.52a7.26,7.26,0,0,0,0-14.51H716.05V591.42Z"/><path class="cls-5" d="M827.62,576.91a7.68,7.68,0,0,0-7.38,5.46L802.32,640.9,784.4,582.37A7.71,7.71,0,1,0,769.69,587l23.67,72.62a9.43,9.43,0,0,0,17.92,0L835,587a7.72,7.72,0,0,0-7.34-10.11Z"/><path class="cls-5" d="M225.58,696.86a11.29,11.29,0,0,0-5.61-1.37H206.41v34.38h6.71V717.39H220a11.42,11.42,0,0,0,5.61-1.36,9.6,9.6,0,0,0,3.83-3.88,12.77,12.77,0,0,0,0-11.39A9.59,9.59,0,0,0,225.58,696.86Zm-2.15,12a3.63,3.63,0,0,1-1.31,1.5,3.78,3.78,0,0,1-2,.52h-7V702h7a3.43,3.43,0,0,1,3.3,2,5.64,5.64,0,0,1,.5,2.45A5.56,5.56,0,0,1,223.43,708.88Z"/><path class="cls-5" d="M286,715a9.33,9.33,0,0,0,3.72-3.7,11,11,0,0,0,1.31-5.41,11.13,11.13,0,0,0-1.3-5.41,9.18,9.18,0,0,0-3.71-3.7,11.28,11.28,0,0,0-5.43-1.28H266.67v34.4h6.71V716.26h4.95l6.87,13.61h7.85l-7.7-14.6Zm-2.4-7a3,3,0,0,1-1.13,1.3,3.12,3.12,0,0,1-1.7.46h-7.34V702h7.34a3.28,3.28,0,0,1,1.71.45,3.08,3.08,0,0,1,1.12,1.31,5.59,5.59,0,0,1,0,4.3Z"/><path class="cls-5" d="M346,696.77a13.83,13.83,0,0,0-12.95,0,11.18,11.18,0,0,0-4.4,4.61,14.34,14.34,0,0,0-1.54,6.74v9.12a14.34,14.34,0,0,0,1.54,6.74,11.18,11.18,0,0,0,4.4,4.61,13.75,13.75,0,0,0,12.95,0,11.12,11.12,0,0,0,4.4-4.61,14.34,14.34,0,0,0,1.53-6.74v-9.12a14.34,14.34,0,0,0-1.53-6.74A11.12,11.12,0,0,0,346,696.77Zm-.88,20.63a7.25,7.25,0,0,1-.72,3.32,4.91,4.91,0,0,1-1.93,2.1,6.26,6.26,0,0,1-5.9,0,5,5,0,0,1-1.92-2.1,7.25,7.25,0,0,1-.72-3.32V708a7.25,7.25,0,0,1,.72-3.32,5,5,0,0,1,1.92-2.1,6.27,6.27,0,0,1,5.91,0,5,5,0,0,1,1.92,2.09,7.32,7.32,0,0,1,.72,3.33Z"/><path class="cls-5" d="M399.51,716.86H406v.29a8.25,8.25,0,0,1-.71,3.58,4.66,4.66,0,0,1-1.9,2.13,5.58,5.58,0,0,1-2.93.75,6.08,6.08,0,0,1-3-.73,4.83,4.83,0,0,1-2-2,6.57,6.57,0,0,1-.71-3.13v-9.5a8.13,8.13,0,0,1,.71-3.52,5.28,5.28,0,0,1,1.92-2.22,5.35,5.35,0,0,1,7,1.2,5.85,5.85,0,0,1,1.13,2.35l.21.83h7.08l-.25-1.3a13.66,13.66,0,0,0-2.32-5.46,11.83,11.83,0,0,0-4.3-3.69,12.18,12.18,0,0,0-5.6-1.3,12.65,12.65,0,0,0-6.47,1.64,11.32,11.32,0,0,0-4.38,4.66,14.91,14.91,0,0,0-1.51,6.81v9.5a13.28,13.28,0,0,0,1.55,6.49,11,11,0,0,0,4.43,4.41,13.48,13.48,0,0,0,6.52,1.54,12.63,12.63,0,0,0,6.47-1.65,11.13,11.13,0,0,0,4.38-4.68,14.92,14.92,0,0,0,1.51-6.82v-6.72H399.51Z"/><path class="cls-5" d="M469.28,715a9.2,9.2,0,0,0,3.72-3.7,11.87,11.87,0,0,0,0-10.82,9.18,9.18,0,0,0-3.71-3.7,11.26,11.26,0,0,0-5.43-1.28H450v34.4h6.71V716.26h5l6.88,13.61h7.84l-7.69-14.6A6.54,6.54,0,0,0,469.28,715Zm-2.4-7a3,3,0,0,1-1.13,1.3,3.09,3.09,0,0,1-1.7.46h-7.34V702h7.34a3.18,3.18,0,0,1,1.71.45,3.08,3.08,0,0,1,1.12,1.31,5.47,5.47,0,0,1,0,4.3Z"/><path class="cls-5" d="M520,695.49l-12.68,34.38h7.23l2.42-7.06h11.43l2.43,7.06h7.22L525.4,695.49Zm-.8,20.83,3.49-10.14,3.49,10.14Z"/><polygon class="cls-5" points="587.53 715.14 578.78 695.49 572.75 695.49 572.75 729.87 579.35 729.87 579.35 712.17 585.24 725.4 589.82 725.4 595.71 711.86 595.71 729.87 602.31 729.87 602.31 695.49 596.27 695.49 587.53 715.14"/><polygon class="cls-5" points="655.33 715.14 646.59 695.49 640.55 695.49 640.55 729.87 647.15 729.87 647.15 712.17 653.05 725.4 657.62 725.4 663.51 711.86 663.51 729.87 670.11 729.87 670.11 695.49 664.08 695.49 655.33 715.14"/><polygon class="cls-5" points="708.36 729.87 731.23 729.87 731.23 723.38 715.07 723.38 715.07 716.03 728.79 716.03 728.79 709.55 715.07 709.55 715.07 701.98 731.23 701.98 731.23 695.49 708.36 695.49 708.36 729.87"/><path class="cls-5" d="M787.2,715a9.29,9.29,0,0,0,3.73-3.7,11.95,11.95,0,0,0,0-10.82,9.26,9.26,0,0,0-3.72-3.7,11.22,11.22,0,0,0-5.42-1.28H767.92v34.4h6.71V716.26h5l6.87,13.61h7.85l-7.7-14.6A6.54,6.54,0,0,0,787.2,715Zm-2.4-7a2.89,2.89,0,0,1-1.13,1.3,3.07,3.07,0,0,1-1.7.46h-7.34V702H782a3.14,3.14,0,0,1,1.71.45,3,3,0,0,1,1.12,1.31,5.47,5.47,0,0,1,0,4.3Z"/></g></g></g></svg>