<svg xmlns="http://www.w3.org/2000/svg" viewBox="0 0 686.79 460.41"><defs><style>.cls-1{fill:#fff;}</style></defs><title>Recurso 12</title><g id="Capa_2" data-name="Capa 2"><g id="Capa_1-2" data-name="Capa 1"><path class="cls-1" d="M374.35,248.08l116.08-165L611.3,134.44,473.11,264.15l196.06-101a32.49,32.49,0,0,0,.44-57.55L481.05,4.83a40.87,40.87,0,0,0-55.92,18L343.39,188.67,261.66,22.81a40.87,40.87,0,0,0-55.92-18L17.18,105.61A32.49,32.49,0,0,0,0,134.27H0a32.49,32.49,0,0,0,17.62,28.89l196.06,101L75.48,134.44,196.36,83.08l116.08,165a37.83,37.83,0,0,0,30.95,16.07h0A37.84,37.84,0,0,0,374.35,248.08Z"/><path class="cls-1" d="M73.71,317.23A7.72,7.72,0,1,0,59,312.58L41.07,371.1,23.15,312.58a7.71,7.71,0,1,0-14.71,4.65l23.67,72.61a9.42,9.42,0,0,0,17.92,0Z"/><path class="cls-1" d="M96.34,307.12a7.56,7.56,0,0,0-7.55,7.55V388.8a7.55,7.55,0,1,0,15.1,0V314.67A7.56,7.56,0,0,0,96.34,307.12Z"/><path class="cls-1" d="M179.51,384.46a33.25,33.25,0,0,0,3.09-5.21,7.35,7.35,0,0,0-.45-7.12A7.49,7.49,0,0,0,169,373a16.66,16.66,0,0,1-2.31,3.64A16,16,0,0,1,161,381a16.33,16.33,0,0,1-6.76,1.47,14.81,14.81,0,0,1-14.07-8.81,23.32,23.32,0,0,1-2.05-10V339.93a23.22,23.22,0,0,1,2.05-10.06,15.6,15.6,0,0,1,5.63-6.53A15.89,15.89,0,0,1,161,322.6a17.11,17.11,0,0,1,5.7,4.5,17.82,17.82,0,0,1,2.26,3.47,7.54,7.54,0,0,0,13.2.73,7.36,7.36,0,0,0,.44-7.14,32.41,32.41,0,0,0-3-5.15,30.38,30.38,0,0,0-10.94-9.45,31.3,31.3,0,0,0-14.32-3.33,32,32,0,0,0-16.51,4.21,28.81,28.81,0,0,0-11.1,11.9,38.23,38.23,0,0,0-3.9,17.59v23.66a38.2,38.2,0,0,0,3.9,17.59,28.58,28.58,0,0,0,11.1,11.88l.13.07A30,30,0,0,0,153,397.24h1.24a31,31,0,0,0,14.26-3.34A30.6,30.6,0,0,0,179.51,384.46Z"/><path class="cls-1" d="M251.8,321.62a7.25,7.25,0,1,0,.15-14.5H212a11.18,11.18,0,0,0-11.17,11.17v66.89A11.18,11.18,0,0,0,212,396.35h40a7.25,7.25,0,0,0,7.1-8.75,7.33,7.33,0,0,0-7.25-5.76H215.91V359.28h29.37A7.25,7.25,0,0,0,251,347.44a7.22,7.22,0,0,0-5.61-2.66H215.91V321.62Z"/><path class="cls-1" d="M334.92,307.12a7.5,7.5,0,0,0-7.49,7.49v53.24l-35.9-56.74a8.57,8.57,0,0,0-15.82,4.58V388.8a7.49,7.49,0,0,0,15,0V336.48l35.75,55.82a8.67,8.67,0,0,0,16-4.68v-73A7.5,7.5,0,0,0,334.92,307.12Z"/><path class="cls-1" d="M419.8,314.37a7.26,7.26,0,0,0-7.26-7.25H363.2a7.25,7.25,0,1,0,0,14.5h17.12V389.1a7.27,7.27,0,0,0,7.25,7.25h.6a7.26,7.26,0,0,0,7.25-7.25V321.62h17.12A7.26,7.26,0,0,0,419.8,314.37Z"/><path class="cls-1" d="M510.76,310.89h0c-5.09-2.51-11.28-3.77-18.4-3.77H474.28a10.77,10.77,0,0,0-10.76,10.76v67.71a10.78,10.78,0,0,0,10.76,10.76h18c7.12,0,13.32-1.27,18.42-3.77a26.77,26.77,0,0,0,11.89-11.18c2.69-4.83,4-10.7,4-17.45V339.51c0-6.75-1.36-12.62-4-17.45A26.82,26.82,0,0,0,510.76,310.89Zm.5,28.15v25.38c0,5.63-1.56,9.85-4.78,12.88s-7.82,4.54-13.76,4.54h-14.1V321.62h14.1c5.94,0,10.57,1.53,13.76,4.55S511.26,333.41,511.26,339Z"/><path class="cls-1" d="M595.49,321.62a7.25,7.25,0,0,0,0-14.5h-40a11.18,11.18,0,0,0-11.17,11.17v66.89a11.18,11.18,0,0,0,11.17,11.17h40a7.26,7.26,0,0,0,0-14.51h-36V359.28H589a7.25,7.25,0,0,0,0-14.5H559.45V321.62Z"/><path class="cls-1" d="M671,307.12a7.68,7.68,0,0,0-7.38,5.46L645.72,371.1,627.8,312.58a7.72,7.72,0,1,0-14.72,4.65l23.67,72.61a9.43,9.43,0,0,0,17.93,0l23.67-72.61A7.71,7.71,0,0,0,671,307.12Z"/><path class="cls-1" d="M69,427.06a11.32,11.32,0,0,0-5.61-1.37H49.81v34.39h6.71V447.59h6.85a11.48,11.48,0,0,0,5.6-1.35,9.66,9.66,0,0,0,3.83-3.88,12.79,12.79,0,0,0,0-11.4A9.69,9.69,0,0,0,69,427.06Zm-2.16,12a3.46,3.46,0,0,1-1.3,1.49,3.7,3.7,0,0,1-2,.52h-7v-8.92h7a3.7,3.7,0,0,1,2,.53,3.53,3.53,0,0,1,1.31,1.51,6.18,6.18,0,0,1,0,4.87Z"/><path class="cls-1" d="M129.34,445.18a9.26,9.26,0,0,0,3.72-3.7,11.91,11.91,0,0,0,0-10.82,9.2,9.2,0,0,0-3.72-3.7,11.15,11.15,0,0,0-5.43-1.29H110.06v34.41h6.71V446.46h5l6.87,13.62h7.84l-7.69-14.61Zm-2.4-7a2.94,2.94,0,0,1-1.13,1.3,3.17,3.17,0,0,1-1.7.45h-7.34v-7.81h7.34a3.16,3.16,0,0,1,1.71.45,3.11,3.11,0,0,1,1.12,1.3,5.5,5.5,0,0,1,0,4.31Z"/><path class="cls-1" d="M189.43,427a13.77,13.77,0,0,0-13,0,11.15,11.15,0,0,0-4.4,4.6,14.37,14.37,0,0,0-1.53,6.74v9.13a14.34,14.34,0,0,0,1.53,6.74,11.15,11.15,0,0,0,4.4,4.6,13.77,13.77,0,0,0,13,0,11.28,11.28,0,0,0,4.4-4.6,14.46,14.46,0,0,0,1.53-6.74v-9.13a14.49,14.49,0,0,0-1.53-6.74A11.28,11.28,0,0,0,189.43,427Zm-.89,20.62a7.39,7.39,0,0,1-.71,3.33A5,5,0,0,1,185.9,453a6.26,6.26,0,0,1-5.9,0,5,5,0,0,1-1.93-2.1,7.39,7.39,0,0,1-.71-3.33v-9.43a7.39,7.39,0,0,1,.71-3.33,5.05,5.05,0,0,1,1.92-2.09,6.2,6.2,0,0,1,5.91,0,5,5,0,0,1,1.93,2.09,7.39,7.39,0,0,1,.71,3.33Z"/><path class="cls-1" d="M242.91,447.06h6.53v.3a8.28,8.28,0,0,1-.71,3.58,4.84,4.84,0,0,1-1.91,2.13,5.64,5.64,0,0,1-2.93.74,6.11,6.11,0,0,1-3-.72,4.92,4.92,0,0,1-2-2,6.5,6.5,0,0,1-.71-3.12v-9.5a8.2,8.2,0,0,1,.71-3.53,5.27,5.27,0,0,1,1.93-2.21,5.31,5.31,0,0,1,7,1.2,5.87,5.87,0,0,1,1.14,2.35l.2.83h7.08l-.25-1.31a13.79,13.79,0,0,0-2.31-5.46,12.1,12.1,0,0,0-4.3-3.69,12.33,12.33,0,0,0-5.6-1.3,12.69,12.69,0,0,0-6.48,1.64,11.2,11.2,0,0,0-4.37,4.67,14.72,14.72,0,0,0-1.52,6.81V448a13.14,13.14,0,0,0,1.56,6.48,11,11,0,0,0,4.43,4.41,13.44,13.44,0,0,0,6.51,1.54,12.69,12.69,0,0,0,6.48-1.64,11.23,11.23,0,0,0,4.37-4.68,14.79,14.79,0,0,0,1.52-6.82v-6.72H242.91Z"/><path class="cls-1" d="M312.67,445.18a9.26,9.26,0,0,0,3.72-3.7,11.83,11.83,0,0,0,0-10.82,9.2,9.2,0,0,0-3.72-3.7,11.11,11.11,0,0,0-5.42-1.29H293.4v34.41h6.7V446.46h5l6.87,13.62h7.84l-7.69-14.61Zm-2.4-7a3,3,0,0,1-1.12,1.3,3.12,3.12,0,0,1-1.71.45H300.1v-7.81h7.34a3.14,3.14,0,0,1,1.71.45,3,3,0,0,1,1.12,1.3,5.5,5.5,0,0,1,0,4.31Z"/><path class="cls-1" d="M363.41,425.69l-12.67,34.39H358l2.43-7.06h11.43l2.42,7.06h7.23l-12.68-34.39Zm-.79,20.84,3.48-10.15,3.49,10.15Z"/><polygon class="cls-1" points="430.92 445.35 422.18 425.69 416.14 425.69 416.14 460.08 422.74 460.08 422.74 442.38 428.64 455.61 433.21 455.61 439.1 442.06 439.1 460.08 445.7 460.08 445.7 425.69 439.66 425.69 430.92 445.35"/><polygon class="cls-1" points="498.73 445.35 489.98 425.69 483.95 425.69 483.95 460.08 490.54 460.08 490.54 442.38 496.44 455.61 501.02 455.61 506.91 442.06 506.91 460.08 513.5 460.08 513.5 425.69 507.47 425.69 498.73 445.35"/><polygon class="cls-1" points="551.75 460.08 574.62 460.08 574.62 453.59 558.46 453.59 558.46 446.24 572.18 446.24 572.18 439.75 558.46 439.75 558.46 432.18 574.62 432.18 574.62 425.69 551.75 425.69 551.75 460.08"/><path class="cls-1" d="M630.6,445.18a9.39,9.39,0,0,0,3.72-3.7,11.87,11.87,0,0,0,0-10.82,9.12,9.12,0,0,0-3.71-3.7,11.18,11.18,0,0,0-5.43-1.29H611.32v34.41H618V446.46h5l6.87,13.62h7.85L630,445.47C630.21,445.38,630.4,445.28,630.6,445.18Zm-2.4-7a3.07,3.07,0,0,1-1.13,1.3,3.2,3.2,0,0,1-1.7.45H618v-7.81h7.34a3.18,3.18,0,0,1,1.71.45,3.11,3.11,0,0,1,1.12,1.3,5.62,5.62,0,0,1,0,4.31Z"/></g></g></svg>